<svg width="19" height="18" viewBox="0 0 19 18" fill="none" xmlns="http://www.w3.org/2000/svg">
<path d="M0.907227 14.1539L0.907227 11.6266L0.907227 9.94177" stroke="#111111" stroke-width="1.5" stroke-linecap="round" stroke-linejoin="round"/>
<path d="M17.7559 14.154V9.94181C17.7559 7.4145 15.3971 1.51746 9.33158 1.51746C3.26604 1.51745 0.907227 7.4145 0.907227 9.94181" stroke="#111111" stroke-width="1.5" stroke-linecap="round" stroke-linejoin="round"/>
<path d="M5.96191 10.6918C6.01279 10.692 6.05371 10.7336 6.05371 10.7845V16.681C6.05371 16.732 6.01279 16.7736 5.96191 16.7738C4.51507 16.7738 3.3418 15.6005 3.3418 14.1537V13.3119C3.3418 11.865 4.51507 10.6918 5.96191 10.6918Z" stroke="#111111" stroke-width="1.5"/>
<path d="M12.7012 10.6918C12.6503 10.692 12.6094 10.7336 12.6094 10.7845V16.681C12.6094 16.732 12.6503 16.7736 12.7012 16.7738C14.148 16.7738 15.3213 15.6005 15.3213 14.1537V13.3119C15.3213 11.865 14.148 10.6918 12.7012 10.6918Z" stroke="#111111" stroke-width="1.5"/>
</svg>
