<svg width="200" height="88" viewBox="0 0 200 88" fill="none" xmlns="http://www.w3.org/2000/svg">
<g filter="url(#filter0_d_192_44)">
<mask id="path-1-inside-1_192_44" fill="white">
<path d="M167.28 4C171.698 4.0002 175.28 7.58184 175.28 12V30.4141L191.063 38.207L191.198 38.2793C192.548 39.0713 192.503 41.082 191.063 41.793L175.28 49.585V68C175.28 72.4182 171.698 75.9998 167.28 76H16C11.5817 76 8 72.4183 8 68V12C8 7.58172 11.5817 4 16 4H167.28Z"/>
</mask>
<path d="M167.28 4C171.698 4.0002 175.28 7.58184 175.28 12V30.4141L191.063 38.207L191.198 38.2793C192.548 39.0713 192.503 41.082 191.063 41.793L175.28 49.585V68C175.28 72.4182 171.698 75.9998 167.28 76H16C11.5817 76 8 72.4183 8 68V12C8 7.58172 11.5817 4 16 4H167.28Z" fill="white"/>
<path d="M167.28 4L167.28 3H167.28V4ZM175.28 30.4141H174.28V31.0356L174.838 31.3107L175.28 30.4141ZM191.063 38.207L191.536 37.3257L191.521 37.3178L191.506 37.3104L191.063 38.207ZM191.198 38.2793L191.704 37.4169L191.688 37.4071L191.671 37.398L191.198 38.2793ZM191.063 41.793L191.506 42.6896L191.506 42.6895L191.063 41.793ZM175.28 49.585L174.838 48.6883L174.28 48.9634V49.585H175.28ZM167.28 76L167.28 77L167.28 77L167.28 76ZM16 76L16 77H16V76ZM167.28 4L167.28 5C171.146 5.00017 174.28 8.13417 174.28 12H175.28H176.28C176.28 7.02952 172.251 3.00022 167.28 3L167.28 4ZM175.28 12H174.28V30.4141H175.28H176.28V12H175.28ZM175.28 30.4141L174.838 31.3107L190.621 39.1037L191.063 38.207L191.506 37.3104L175.723 29.5174L175.28 30.4141ZM191.063 38.207L190.591 39.0883L190.726 39.1606L191.198 38.2793L191.671 37.398L191.536 37.3257L191.063 38.207ZM191.198 38.2793L190.692 39.1417C191.364 39.5359 191.338 40.542 190.621 40.8964L191.063 41.793L191.506 42.6895C193.667 41.6219 193.732 38.6068 191.704 37.4169L191.198 38.2793ZM191.063 41.793L190.621 40.8963L174.838 48.6883L175.28 49.585L175.723 50.4816L191.506 42.6896L191.063 41.793ZM175.28 49.585H174.28V68H175.28H176.28V49.585H175.28ZM175.28 68H174.28C174.28 71.8658 171.146 74.9998 167.28 75L167.28 76L167.28 77C172.251 76.9998 176.28 72.9705 176.28 68H175.28ZM167.28 76V75H16V76V77H167.28V76ZM16 76L16 75C12.134 75 9 71.866 9 68H8H7C7 72.9706 11.0294 77 16 77L16 76ZM8 68H9V12H8H7V68H8ZM8 12H9C9 8.13401 12.134 5 16 5V4V3C11.0294 3 7 7.02944 7 12H8ZM16 4V5H167.28V4V3H16V4Z" fill="#00704A" mask="url(#path-1-inside-1_192_44)"/>
</g>
<defs>
<filter id="filter0_d_192_44" x="0.2" y="0.2" width="199.778" height="87.6" filterUnits="userSpaceOnUse" color-interpolation-filters="sRGB">
<feFlood flood-opacity="0" result="BackgroundImageFix"/>
<feColorMatrix in="SourceAlpha" type="matrix" values="0 0 0 0 0 0 0 0 0 0 0 0 0 0 0 0 0 0 127 0" result="hardAlpha"/>
<feOffset dy="4"/>
<feGaussianBlur stdDeviation="3.9"/>
<feComposite in2="hardAlpha" operator="out"/>
<feColorMatrix type="matrix" values="0 0 0 0 0 0 0 0 0 0 0 0 0 0 0 0 0 0 0.25 0"/>
<feBlend mode="normal" in2="BackgroundImageFix" result="effect1_dropShadow_192_44"/>
<feBlend mode="normal" in="SourceGraphic" in2="effect1_dropShadow_192_44" result="shape"/>
</filter>
</defs>
</svg>
