<svg width="750" height="90" viewBox="0 0 750 90" fill="none" xmlns="http://www.w3.org/2000/svg">
<path d="M0.504 81.984L5.368 62.912C5.53867 62.4 5.79467 62.0587 6.136 61.888C6.56267 61.632 6.98933 61.632 7.416 61.888C10.1467 63.2533 13.56 64.5333 17.656 65.728C21.752 66.9227 26.1467 67.52 30.84 67.52C37.6667 67.52 41.08 65.8133 41.08 62.4C41.08 59.9253 36.8133 57.4933 28.28 55.104C24.696 54.08 21.24 52.8 17.912 51.264C14.6693 49.6427 11.768 47.7227 9.208 45.504C6.73333 43.2853 4.77067 40.7253 3.32 37.824C1.86933 34.9227 1.144 31.5947 1.144 27.84C1.144 23.8293 1.99733 20.16 3.704 16.832C5.41067 13.4187 7.84267 10.4747 11 8C14.2427 5.52533 18.1253 3.60533 22.648 2.24C27.1707 0.874662 32.248 0.191994 37.88 0.191994C43.768 0.191994 48.76 0.61866 52.856 1.47199C57.0373 2.32533 60.7493 3.47733 63.992 4.92799C64.8453 5.26933 65.144 5.86666 64.888 6.71999L59.512 25.024C59.1707 26.1333 58.488 26.4747 57.464 26.048C55.5013 25.1947 52.8133 24.2987 49.4 23.36C46.072 22.336 42.104 21.824 37.496 21.824C34.5093 21.824 32.2053 22.208 30.584 22.976C28.9627 23.6587 28.152 24.7253 28.152 26.176C28.152 27.8827 29.3893 29.248 31.864 30.272C34.3387 31.2107 38.1787 32.4907 43.384 34.112C51.832 36.7573 58.0613 40.256 62.072 44.608C66.168 48.96 68.216 54.464 68.216 61.12C68.216 64.7893 67.448 68.3307 65.912 71.744C64.4613 75.1573 62.1573 78.1867 59 80.832C55.8427 83.4773 51.7893 85.6107 46.84 87.232C41.8907 88.768 35.96 89.536 29.048 89.536C26.232 89.536 23.4587 89.3653 20.728 89.024C17.9973 88.6827 15.3947 88.2133 12.92 87.616C10.5307 87.0187 8.35467 86.3787 6.392 85.696C4.42933 85.0133 2.76533 84.3307 1.4 83.648C1.05867 83.4773 0.802667 83.2213 0.632 82.88C0.461334 82.5387 0.418667 82.24 0.504 81.984ZM99.746 86.464V23.616H77.602C76.6633 23.616 76.194 23.1467 76.194 22.208V3.13599C76.194 2.112 76.6633 1.6 77.602 1.6H148.514C149.538 1.6 150.05 2.112 150.05 3.13599V22.208C150.05 23.1467 149.538 23.616 148.514 23.616H126.114V86.464C126.114 87.488 125.602 88 124.578 88H101.154C100.215 88 99.746 87.488 99.746 86.464ZM195.954 67.648H174.194C173.426 70.8907 172.573 74.1333 171.634 77.376C170.781 80.5333 169.97 83.6907 169.202 86.848C169.031 87.616 168.519 88 167.666 88H143.09C142.493 88 142.066 87.7867 141.81 87.36C141.554 86.9333 141.511 86.5067 141.682 86.08L168.05 2.62399C168.221 1.94133 168.69 1.6 169.458 1.6H201.33C202.098 1.6 202.567 1.94133 202.738 2.62399L230.77 86.08C230.941 86.5067 230.898 86.9333 230.642 87.36C230.386 87.7867 229.959 88 229.362 88H203.378C203.122 88 202.823 87.9147 202.482 87.744C202.226 87.488 202.055 87.1893 201.97 86.848L195.954 67.648ZM178.29 47.68H191.73C191.047 45.5467 190.407 43.4133 189.81 41.28C189.213 39.0613 188.573 36.928 187.89 34.88C187.463 33.5147 186.951 32.064 186.354 30.528C185.842 28.992 185.373 27.4987 184.946 26.048L185.074 26.176C184.903 25.5787 184.775 25.2373 184.69 25.152C184.69 24.9813 184.733 24.896 184.818 24.896C184.818 24.896 184.775 24.8533 184.69 24.768C184.69 24.5973 184.605 24.2987 184.434 23.872C184.349 24.2987 184.221 24.8107 184.05 25.408C183.965 26.0053 183.879 26.5173 183.794 26.944C183.453 28.3947 183.111 29.8027 182.77 31.168C182.429 32.448 182.045 33.6853 181.618 34.88H181.746C181.149 37.3547 180.594 39.488 180.082 41.28C179.57 43.072 178.973 45.2053 178.29 47.68ZM242.436 86.464V4.16C242.436 3.392 242.863 2.92266 243.716 2.752C246.959 2.24 251.097 1.81333 256.132 1.47199C261.252 1.04533 267.012 0.831993 273.412 0.831993C280.665 0.831993 286.724 1.38666 291.588 2.49599C296.452 3.60533 300.548 5.35466 303.876 7.744C306.777 9.79199 309.039 12.4373 310.66 15.68C312.367 18.9227 313.22 22.7627 313.22 27.2C313.22 29.76 312.793 32.1493 311.94 34.368C311.087 36.5867 310.02 38.5493 308.74 40.256C307.46 41.9627 306.009 43.456 304.388 44.736C302.852 46.016 301.316 46.9973 299.78 47.68C301.999 49.1307 303.833 51.0933 305.284 53.568C306.82 56.0427 308.143 58.8587 309.252 62.016C309.935 63.9787 310.575 66.0693 311.172 68.288C311.855 70.4213 312.495 72.5547 313.092 74.688C313.775 77.0773 314.415 79.3813 315.012 81.6C315.609 83.8187 316.121 85.2693 316.548 85.952C316.804 86.464 316.804 86.9333 316.548 87.36C316.292 87.7867 315.823 88 315.14 88H291.46C290.863 88 290.393 87.744 290.052 87.232C289.369 86.0373 288.473 83.904 287.364 80.832C286.255 77.6747 284.975 73.3227 283.524 67.776C282.927 65.472 282.244 63.6373 281.476 62.272C280.793 60.8213 279.983 59.712 279.044 58.944C278.105 58.176 276.996 57.664 275.716 57.408C274.436 57.0667 272.943 56.896 271.236 56.896H268.548V86.464C268.548 87.488 268.036 88 267.012 88H243.972C242.948 88 242.436 87.488 242.436 86.464ZM268.548 21.184V37.568H273.924C278.02 37.568 281.22 36.8 283.524 35.264C285.913 33.728 287.108 31.6373 287.108 28.992C287.108 26.2613 286.127 24.256 284.164 22.976C282.201 21.6107 279.471 20.928 275.972 20.928C273.924 20.928 272.345 20.928 271.236 20.928C270.127 20.928 269.231 21.0133 268.548 21.184ZM326.561 86.08V4.16C326.561 3.90399 326.689 3.64799 326.945 3.392C327.201 3.05066 327.457 2.83733 327.713 2.752C328.993 2.496 330.657 2.28266 332.705 2.112C334.838 1.856 337.185 1.64266 339.745 1.47199C342.305 1.30133 344.993 1.17333 347.809 1.088C350.71 0.917328 353.569 0.831993 356.385 0.831993C359.628 0.831993 362.529 0.917328 365.089 1.088C367.734 1.17333 370.124 1.344 372.257 1.6C374.39 1.856 376.353 2.24 378.145 2.752C379.937 3.17867 381.686 3.73333 383.393 4.41599C387.148 5.86666 390.348 8.21333 392.993 11.456C395.724 14.6987 397.089 18.7093 397.089 23.488C397.089 26.9013 396.236 30.144 394.529 33.216C392.908 36.2027 389.964 38.7627 385.697 40.896C390.22 42.688 393.718 45.376 396.193 48.96C398.668 52.4587 399.905 56.6827 399.905 61.632C399.905 65.984 398.881 69.8667 396.833 73.28C394.785 76.6933 392.14 79.5093 388.897 81.728C385.484 84.032 380.833 85.824 374.945 87.104C369.057 88.384 361.377 89.024 351.905 89.024C346.017 89.024 341.068 88.8533 337.057 88.512C333.132 88.256 330.017 87.9147 327.713 87.488C327.457 87.4027 327.201 87.232 326.945 86.976C326.689 86.72 326.561 86.4213 326.561 86.08ZM352.673 52.544V68.928C353.441 69.0133 354.294 69.056 355.233 69.056C356.172 69.056 357.324 69.056 358.689 69.056C360.481 69.056 362.188 68.928 363.809 68.672C365.516 68.3307 366.966 67.8187 368.161 67.136C369.441 66.368 370.422 65.4293 371.105 64.32C371.873 63.2107 372.257 61.888 372.257 60.352C372.257 57.3653 370.806 55.232 367.905 53.952C365.089 52.5867 361.548 52.032 357.281 52.288L352.673 52.544ZM352.673 20.8V33.216H356.129C361.078 33.216 364.705 32.6187 367.009 31.424C369.313 30.2293 370.465 28.5653 370.465 26.432C370.465 22.5067 366.838 20.544 359.585 20.544C357.878 20.544 356.47 20.544 355.361 20.544C354.337 20.544 353.441 20.6293 352.673 20.8ZM413.847 1.6H437.271C438.295 1.6 438.807 2.112 438.807 3.13599V48.448C438.807 54.592 439.916 59.456 442.135 63.04C444.354 66.624 447.895 68.416 452.759 68.416C457.623 68.416 461.164 66.7093 463.383 63.296C465.602 59.7973 466.711 54.848 466.711 48.448V3.13599C466.711 2.112 467.223 1.6 468.247 1.6H491.671C492.61 1.6 493.079 2.112 493.079 3.13599V47.808C493.079 61.888 489.452 72.384 482.199 79.296C475.031 86.1227 464.876 89.536 451.735 89.536C445.506 89.536 439.959 88.7253 435.095 87.104C430.231 85.4827 426.092 82.9653 422.679 79.552C419.351 76.0533 416.791 71.6587 414.999 66.368C413.292 60.992 412.439 54.592 412.439 47.168V3.13599C412.439 2.112 412.908 1.6 413.847 1.6ZM577.797 65.856L581.381 83.776C581.466 84.1173 581.381 84.4587 581.125 84.8C580.954 85.056 580.741 85.2693 580.485 85.44C578.693 86.2933 575.664 87.1893 571.397 88.128C567.13 89.0667 562.053 89.536 556.165 89.536C547.461 89.536 539.909 88.384 533.509 86.08C527.194 83.6907 521.989 80.5333 517.893 76.608C513.797 72.5973 510.725 67.9893 508.677 62.784C506.714 57.4933 505.733 51.9467 505.733 46.144C505.733 38.6347 507.098 32.0213 509.829 26.304C512.56 20.5867 516.272 15.808 520.965 11.968C525.658 8.04266 531.12 5.09866 537.349 3.13599C543.578 1.17333 550.234 0.191994 557.317 0.191994C562.949 0.191994 567.941 0.61866 572.293 1.47199C576.645 2.23999 579.888 3.22133 582.021 4.41599C582.704 4.75733 582.96 5.35466 582.789 6.20799L577.925 24.256C577.754 24.6827 577.456 25.024 577.029 25.28C576.688 25.4507 576.304 25.4507 575.877 25.28C573.829 24.3413 571.312 23.5733 568.325 22.976C565.424 22.2933 562.053 21.952 558.213 21.952C554.885 21.952 551.728 22.4213 548.741 23.36C545.754 24.2133 543.109 25.5787 540.805 27.456C538.586 29.3333 536.794 31.68 535.429 34.496C534.064 37.312 533.381 40.6827 533.381 44.608C533.381 51.3493 535.557 56.8533 539.909 61.12C544.346 65.3867 550.661 67.52 558.853 67.52C562.01 67.52 565.125 67.264 568.197 66.752C571.354 66.1547 573.872 65.472 575.749 64.704C576.176 64.5333 576.56 64.576 576.901 64.832C577.328 65.0027 577.626 65.344 577.797 65.856ZM594.689 86.464V3.13599C594.689 2.112 595.201 1.6 596.225 1.6H619.265C620.289 1.6 620.801 2.112 620.801 3.13599L621.057 33.216C621.569 32.5333 622.038 31.8933 622.465 31.296C622.892 30.6987 623.318 30.1013 623.745 29.504C623.916 29.1627 624.086 28.9067 624.257 28.736L642.561 2.24C642.988 1.81333 643.414 1.6 643.841 1.6H673.409C674.092 1.6 674.561 1.89866 674.817 2.49599C675.073 3.09333 674.988 3.60533 674.561 4.032L645.889 38.464C650.924 46.4 655.958 54.2933 660.993 62.144C666.028 69.9947 671.02 77.888 675.969 85.824C676.31 86.336 676.353 86.848 676.097 87.36C675.841 87.7867 675.372 88 674.689 88H647.169C646.657 88 646.23 87.744 645.889 87.232L626.945 54.72C625.921 55.9147 624.897 57.1093 623.873 58.304C622.934 59.4133 621.91 60.608 620.801 61.888V86.464C620.801 87.488 620.289 88 619.265 88H596.225C595.201 88 594.689 87.488 594.689 86.464ZM681.754 81.984L686.618 62.912C686.789 62.4 687.045 62.0587 687.386 61.888C687.813 61.632 688.239 61.632 688.666 61.888C691.397 63.2533 694.81 64.5333 698.906 65.728C703.002 66.9227 707.397 67.52 712.09 67.52C718.917 67.52 722.33 65.8133 722.33 62.4C722.33 59.9253 718.063 57.4933 709.53 55.104C705.946 54.08 702.49 52.8 699.162 51.264C695.919 49.6427 693.018 47.7227 690.458 45.504C687.983 43.2853 686.021 40.7253 684.57 37.824C683.119 34.9227 682.394 31.5947 682.394 27.84C682.394 23.8293 683.247 20.16 684.954 16.832C686.661 13.4187 689.093 10.4747 692.25 8C695.493 5.52533 699.375 3.60533 703.898 2.24C708.421 0.874662 713.498 0.191994 719.13 0.191994C725.018 0.191994 730.01 0.61866 734.106 1.47199C738.287 2.32533 741.999 3.47733 745.242 4.92799C746.095 5.26933 746.394 5.86666 746.138 6.71999L740.762 25.024C740.421 26.1333 739.738 26.4747 738.714 26.048C736.751 25.1947 734.063 24.2987 730.65 23.36C727.322 22.336 723.354 21.824 718.746 21.824C715.759 21.824 713.455 22.208 711.834 22.976C710.213 23.6587 709.402 24.7253 709.402 26.176C709.402 27.8827 710.639 29.248 713.114 30.272C715.589 31.2107 719.429 32.4907 724.634 34.112C733.082 36.7573 739.311 40.256 743.322 44.608C747.418 48.96 749.466 54.464 749.466 61.12C749.466 64.7893 748.698 68.3307 747.162 71.744C745.711 75.1573 743.407 78.1867 740.25 80.832C737.093 83.4773 733.039 85.6107 728.09 87.232C723.141 88.768 717.21 89.536 710.298 89.536C707.482 89.536 704.709 89.3653 701.978 89.024C699.247 88.6827 696.645 88.2133 694.17 87.616C691.781 87.0187 689.605 86.3787 687.642 85.696C685.679 85.0133 684.015 84.3307 682.65 83.648C682.309 83.4773 682.053 83.2213 681.882 82.88C681.711 82.5387 681.669 82.24 681.754 81.984Z" fill="#00704A"/>
</svg>
